<svg xmlns="http://www.w3.org/2000/svg" width="48" height="48" viewBox="0 0 48 48" fill="none">
  <path d="M14.328 4.5H14.3278C13.5323 4.50017 12.7694 4.81631 12.2069 5.37889C12.2069 5.37893 12.2068 5.37896 12.2068 5.379L4.79289 12.7929C4.5069 13.0789 4.42134 13.509 4.57612 13.8827C4.7309 14.2564 5.09554 14.5 5.5 14.5H33.5V42.5C33.5 42.9045 33.7436 43.2691 34.1173 43.4239C34.491 43.5787 34.9211 43.4931 35.2071 43.2071L42.621 35.7932C42.621 35.7932 42.6211 35.7931 42.6211 35.7931C43.1837 35.2306 43.4998 34.4677 43.5 33.6722V33.672V9.5C43.5 8.17392 42.9732 6.90215 42.0355 5.96447C41.0979 5.02678 39.8261 4.5 38.5 4.5H14.328Z" stroke="#1E1E1E" stroke-width="2" stroke-linecap="round" stroke-linejoin="round"/>
  <path d="M14.5 18.5H8.5C7.39543 18.5 6.5 19.3954 6.5 20.5V26.5C6.5 27.6046 7.39543 28.5 8.5 28.5H14.5C15.6046 28.5 16.5 27.6046 16.5 26.5V20.5C16.5 19.3954 15.6046 18.5 14.5 18.5Z" stroke="#1E1E1E" stroke-width="2" stroke-linecap="round" stroke-linejoin="round"/>
  <path d="M27.5 18.5H21.5C20.3954 18.5 19.5 19.3954 19.5 20.5V26.5C19.5 27.6046 20.3954 28.5 21.5 28.5H27.5C28.6046 28.5 29.5 27.6046 29.5 26.5V20.5C29.5 19.3954 28.6046 18.5 27.5 18.5Z" stroke="#1E1E1E" stroke-width="2" stroke-linecap="round" stroke-linejoin="round"/>
  <path d="M27.5 31.5H21.5C20.3954 31.5 19.5 32.3954 19.5 33.5V39.5C19.5 40.6046 20.3954 41.5 21.5 41.5H27.5C28.6046 41.5 29.5 40.6046 29.5 39.5V33.5C29.5 32.3954 28.6046 31.5 27.5 31.5Z" stroke="#1E1E1E" stroke-width="2" stroke-linecap="round" stroke-linejoin="round"/>
</svg>